<?xml version="1.0" encoding="UTF-8" standalone="no"?>
<!DOCTYPE svg PUBLIC "-//W3C//DTD SVG 1.1//EN" "http://www.w3.org/Graphics/SVG/1.1/DTD/svg11.dtd">
<svg width="100%" height="100%" viewBox="0 0 664 200" version="1.1" xmlns="http://www.w3.org/2000/svg" xmlns:xlink="http://www.w3.org/1999/xlink" xml:space="preserve" xmlns:serif="http://www.serif.com/" style="fill-rule:evenodd;clip-rule:evenodd;stroke-linejoin:round;stroke-miterlimit:2;">
    <g id="Artboard1" transform="matrix(0.879753,0,0,0.533058,1.02297,-41.3223)">
        <rect x="-1.163" y="77.519" width="754.264" height="375.194" style="fill:none;"/>
        <g transform="matrix(8.00259,0,0,13.2074,-718.003,-1393.26)">
            <text x="91.085px" y="136.434px" style="font-family:'MicrosoftYaHei-Bold', 'Microsoft YaHei', sans-serif;font-weight:700;font-size:12px;fill:rgb(106,140,16);">P<tspan x="98.638px 105.57px " y="136.434px 136.434px ">ar</tspan>k &amp; W<tspan x="148.296px 155.228px " y="136.434px 136.434px ">al</tspan>k</text>
        </g>
        <g id="Walk" transform="matrix(9.70688,-7.89706e-17,9.67745e-17,16.0201,-706.405,-3349.17)">
            <path d="M143.84,219.189C144.748,219.236 145.523,218.562 145.572,217.682C145.62,216.802 144.926,216.05 144.02,216.002C143.112,215.954 142.337,216.628 142.288,217.509C142.239,218.389 142.934,219.141 143.84,219.189ZM146.895,230.587C146.838,230.32 146.721,230.068 146.551,229.85L144.33,226.941L144.333,221.054C144.338,220.906 144.481,220.776 144.333,220.744L142.22,220.155C141.984,220.102 141.604,220.061 141.395,220.181L137.949,222.304C137.237,222.739 137.041,223.084 137,223.839L137,226.107C137,226.566 137.193,226.918 137.667,226.918C138.14,226.918 138.333,226.542 138.333,226.107L138.333,224C138.333,223.63 139.104,223.288 139.396,223.123L140.833,222.195L140.773,225.486C140.752,225.809 140.863,226.127 141.081,226.371L144.562,230.415C144.666,230.531 144.718,230.722 144.752,230.872L145.8,235.259C145.897,235.691 146.292,236 146.749,236L146.752,236C147.367,236 147.828,235.452 147.703,234.867L146.895,230.587ZM148.776,224.933C148.77,224.928 145.526,221.764 145.526,221.764L145.456,223.787L147.688,226.01C148.418,226.682 149.463,225.582 148.776,224.933ZM140.573,230.448C140.569,230.537 140.546,230.757 140.474,230.813L137.599,233.017C137.118,233.408 137.079,233.938 137.383,234.377C137.729,234.877 138.447,234.975 138.923,234.588L142.123,232.054C142.38,231.845 142.54,231.545 142.57,231.221L142.64,229.805L140.778,227.695L140.573,230.448Z" style="fill:rgb(171,42,140);"/>
        </g>
    </g>
</svg>
